<?xml version="1.0" encoding="iso-8859-1"?>
<!-- Generator: Adobe Illustrator 16.0.0, SVG Export Plug-In . SVG Version: 6.00 Build 0)  -->
<!DOCTYPE svg PUBLIC "-//W3C//DTD SVG 1.1//EN" "http://www.w3.org/Graphics/SVG/1.1/DTD/svg11.dtd">
<svg version="1.1" id="Capa_1" xmlns="http://www.w3.org/2000/svg" xmlns:xlink="http://www.w3.org/1999/xlink" x="0px" y="0px"
	 width="880.684px" height="880.685px" background-color="#ffffff" viewBox="0 0 880.684 880.685" style="enable-background:new 0 0 880.684 880.685;"
	 xml:space="preserve" >
<g>
	<g>
		<path d="M707.462,818.76l-31.5-137.199c-305.801,15.398-382.7-94.201-382.7-94.201s-109.5-76.799-94.1-382.7l-137.2-31.5
			c-60.9,182.3-116,456.7,36.4,609.1C250.862,934.76,525.262,879.66,707.462,818.76z"/>
		<path d="M204.362,136.06l8.2-81c2.6-25.3-14.2-48.4-39-53.9c-23.3-5.1-47,7-56.5,28.8c-10.2,23.4-24,56.3-38.5,95.7l124.1,28.5
			C203.162,148.26,203.762,142.16,204.362,136.06z"/>
		<path d="M850.662,763.66c21.9-9.5,34-33.201,28.801-56.5l0,0c-5.4-24.801-28.601-41.6-53.9-39l-81,8.199
			c-6.1,0.6-12.2,1.201-18.2,1.701l28.5,124.1C794.362,787.66,827.262,773.859,850.662,763.66z"/>
	</g>
</g>
<g>
</g>
<g>
</g>
<g>
</g>
<g>
</g>
<g>
</g>
<g>
</g>
<g>
</g>
<g>
</g>
<g>
</g>
<g>
</g>
<g>
</g>
<g>
</g>
<g>
</g>
<g>
</g>
<g>
</g>
</svg>
